<svg width="480" height="480" viewBox="0 0 480 480" version="1.1" xmlns="http://www.w3.org/2000/svg" xmlns:xlink="http://www.w3.org/1999/xlink">
<title>004-bank-account</title>
<desc>Created using Figma</desc>
<g id="Canvas" transform="translate(473 -1994)">
<g id="004-bank-account">
<g id="Group">
<g id="Group">
<g id="Vector">
<use xlink:href="#path0_fill" transform="translate(-473 1994)" fill="#A4A4A4"/>
</g>
</g>
</g>
<g id="Group">
<g id="Group">
<g id="Vector">
<use xlink:href="#path1_fill" transform="translate(-225 2266)" fill="#A4A4A4"/>
</g>
</g>
</g>
<g id="Group">
<g id="Group">
<g id="Vector">
<use xlink:href="#path2_fill" transform="translate(-129 2338)" fill="#A4A4A4"/>
</g>
</g>
</g>
</g>
</g>
<defs>
<path id="path0_fill" d="M 472 208L 448 208L 448 112C 448 107.584 444.416 104 440 104L 416 104L 416 8C 416 3.584 412.416 0 408 0L 8 0C 3.584 0 0 3.584 0 8L 0 200L 0 232C 0 251.312 13.768 267.472 32 271.192L 32 304L 32 336C 32 355.312 45.768 371.472 64 375.192L 64 408L 64 440C 64 462.056 81.944 480 104 480L 440 480C 462.056 480 480 462.056 480 440L 480 408L 480 216C 480 211.584 476.416 208 472 208ZM 32 254.632C 22.688 251.328 16 242.432 16 232L 16 208L 32 208L 32 254.632ZM 40 104C 35.584 104 32 107.584 32 112L 32 192L 16 192L 16 16L 400 16L 400 104L 211.312 104L 200.504 93.192C 201.648 90.168 204.576 88 208 88C 212.408 88 216 91.592 216 96L 232 96C 232 85.584 225.288 76.784 216 73.472L 216 64L 200 64L 200 73.472C 190.712 76.784 184 85.584 184 96C 184 98.12 184.84 100.16 186.344 101.656L 188.688 104L 40 104ZM 64 358.632C 54.688 355.328 48 346.432 48 336L 48 312L 64 312L 64 358.632ZM 72 208C 67.584 208 64 211.584 64 216L 64 296L 48 296L 48 264L 48 200L 48 120L 408 120L 432 120L 432 208L 243.312 208L 232.504 197.192C 233.648 194.168 236.576 192 240 192C 244.408 192 248 195.592 248 200L 264 200C 264 189.584 257.288 180.784 248 177.472L 248 168L 232 168L 232 177.472C 222.712 180.784 216 189.584 216 200C 216 202.12 216.84 204.16 218.344 205.656L 220.688 208L 72 208ZM 464 440C 464 453.232 453.232 464 440 464L 104 464C 90.768 464 80 453.232 80 440L 80 416L 316.176 416C 317.768 418.376 319.528 420.624 321.392 422.792C 321.648 423.088 321.912 423.36 322.176 423.648C 323.784 425.456 325.472 427.184 327.248 428.824C 327.608 429.152 327.96 429.48 328.328 429.808C 330.296 431.552 332.344 433.2 334.496 434.728C 334.568 434.776 334.632 434.832 334.704 434.888C 339.352 438.16 344.392 440.872 349.752 442.976C 350.048 443.096 350.352 443.192 350.648 443.304C 352.888 444.152 355.168 444.88 357.504 445.504C 358.08 445.656 358.656 445.808 359.24 445.952C 361.36 446.464 363.512 446.864 365.704 447.176C 366.36 447.272 367 447.4 367.656 447.472C 370.4 447.792 373.176 448 376 448C 378.824 448 381.6 447.792 384.344 447.472C 385 447.392 385.64 447.272 386.296 447.176C 388.48 446.864 390.64 446.456 392.76 445.952C 393.344 445.808 393.912 445.664 394.496 445.504C 396.832 444.88 399.12 444.152 401.352 443.304C 401.648 443.192 401.952 443.088 402.248 442.976C 407.608 440.864 412.648 438.152 417.296 434.888C 417.368 434.84 417.432 434.784 417.504 434.728C 419.656 433.2 421.704 431.552 423.672 429.808C 424.04 429.488 424.392 429.16 424.752 428.824C 426.528 427.184 428.224 425.464 429.824 423.648C 430.08 423.36 430.352 423.08 430.608 422.792C 432.464 420.624 434.224 418.376 435.824 416L 464 416L 464 440ZM 320 376C 320 345.12 345.12 320 376 320C 406.88 320 432 345.12 432 376C 432 378.264 431.824 380.52 431.552 382.768C 431.488 383.272 431.4 383.768 431.32 384.264C 431.04 386.128 430.68 387.976 430.208 389.8C 430.112 390.168 430.024 390.544 429.92 390.912C 428.664 395.4 426.864 399.752 424.52 403.84C 424.448 403.968 424.368 404.088 424.288 404.224C 423.144 406.176 421.88 408.048 420.52 409.832C 420.392 410 420.272 410.176 420.144 410.336C 417.208 414.096 413.832 417.448 410.112 420.312C 409.984 420.408 409.864 420.496 409.736 420.592C 407.888 421.992 405.96 423.288 403.96 424.448C 403.944 424.456 403.928 424.472 403.912 424.48C 399.856 426.824 395.504 428.632 390.976 429.904C 390.616 430 390.256 430.088 389.896 430.184C 388.08 430.656 386.224 431.016 384.36 431.304C 383.848 431.384 383.336 431.48 382.824 431.536C 380.568 431.824 378.296 432 376 432C 373.704 432 371.432 431.824 369.184 431.544C 368.664 431.48 368.16 431.384 367.648 431.312C 365.776 431.024 363.928 430.664 362.112 430.192C 361.752 430.096 361.392 430.016 361.032 429.912C 356.504 428.64 352.152 426.832 348.096 424.488C 348.08 424.48 348.064 424.464 348.048 424.456C 346.048 423.296 344.12 422 342.272 420.6C 342.144 420.504 342.024 420.416 341.896 420.32C 338.168 417.448 334.792 414.104 331.864 410.344C 331.736 410.176 331.616 410.008 331.488 409.84C 330.128 408.056 328.872 406.192 327.72 404.232C 327.648 404.104 327.56 403.984 327.488 403.848C 325.136 399.76 323.336 395.408 322.088 390.92C 321.984 390.552 321.896 390.176 321.8 389.808C 321.328 387.984 320.968 386.136 320.688 384.272C 320.616 383.776 320.52 383.28 320.456 382.776C 320.176 380.52 320 378.264 320 376ZM 464 400L 443.848 400C 443.944 399.728 444.008 399.44 444.104 399.16C 444.536 397.896 444.928 396.616 445.288 395.328C 445.536 394.448 445.76 393.568 445.968 392.68C 446.248 391.504 446.52 390.328 446.744 389.128C 446.968 387.944 447.128 386.752 447.288 385.56C 447.416 384.608 447.568 383.664 447.656 382.704C 447.872 380.472 448 378.24 448 376C 448 336.304 415.696 304 376 304C 336.304 304 304 336.304 304 376C 304 378.24 304.128 380.472 304.336 382.704C 304.424 383.672 304.576 384.608 304.704 385.56C 304.864 386.752 305.032 387.944 305.248 389.128C 305.472 390.328 305.744 391.504 306.024 392.68C 306.24 393.568 306.464 394.448 306.704 395.328C 307.064 396.624 307.456 397.896 307.888 399.16C 307.984 399.44 308.048 399.72 308.144 400L 80 400L 80 368L 80 304L 80 224L 440 224L 464 224L 464 400Z"/>
<path id="path1_fill" d="M 44.8 49.6L 16.768 28.576C 18.056 25.872 20.816 24 24 24C 28.408 24 32 27.592 32 32L 48 32C 48 21.584 41.288 12.784 32 9.47198L 32 0L 16 0L 16 9.47198C 6.712 12.784 0 21.584 0 32C 0 34.52 1.184 36.888 3.2 38.4L 31.232 59.424C 29.944 62.128 27.184 64 24 64C 19.592 64 16 60.408 16 56L 0 56C 0 66.416 6.712 75.216 16 78.528L 16 88L 32 88L 32 78.528C 41.288 75.216 48 66.416 48 56C 48 53.48 46.816 51.112 44.8 49.6Z"/>
<path id="path2_fill" d="M 40 24L 40 0L 24 0L 24 24L 0 24L 0 40L 24 40L 24 64L 40 64L 40 40L 64 40L 64 24L 40 24Z"/>
</defs>
</svg>
