<svg width="115" height="95" viewBox="0 0 115 95" version="1.1" xmlns="http://www.w3.org/2000/svg" xmlns:xlink="http://www.w3.org/1999/xlink">
<title>013-dollar-analysis-bars-chart</title>
<desc>Created using Figma</desc>
<g id="Canvas" transform="translate(2265 -643)">
<g id="013-dollar-analysis-bars-chart">
<g id="Group">
<g id="Group">
<g id="Vector">
<use xlink:href="#path0_fill" transform="translate(-2265 643)" fill="#FFFFFF"/>
</g>
<g id="Vector">
<use xlink:href="#path1_fill" transform="translate(-2249.36 656.603)" fill="#FFFFFF"/>
</g>
<g id="Vector">
<use xlink:href="#path2_fill" transform="translate(-2227.61 682.898)" fill="#FFFFFF"/>
</g>
<g id="Vector">
<use xlink:href="#path3_fill" transform="translate(-2206.1 696.936)" fill="#FFFFFF"/>
</g>
<g id="Vector">
<use xlink:href="#path4_fill" transform="translate(-2183.6 694.766)" fill="#FFFFFF"/>
</g>
<g id="Vector">
<use xlink:href="#path5_fill" transform="translate(-2219.81 650.255)" fill="#FFFFFF"/>
</g>
<g id="Vector">
<use xlink:href="#path6_fill" transform="translate(-2203.33 659.812)" fill="#FFFFFF"/>
</g>
</g>
</g>
</g>
</g>
<defs>
<path id="path0_fill" d="M 99.287 92L 92.166 92L 92.166 87.166C 92.166 86.891 91.941 86.666 91.666 86.666C 91.39 86.666 91.166 86.891 91.166 87.166L 91.166 92L 82.166 92L 82.166 87.166C 82.166 86.891 81.941 86.666 81.666 86.666C 81.39 86.666 81.166 86.891 81.166 87.166L 81.166 92L 72.166 92L 72.166 87.166C 72.166 86.891 71.941 86.666 71.666 86.666C 71.39 86.666 71.166 86.891 71.166 87.166L 71.166 92L 62.166 92L 62.166 87.166C 62.166 86.891 61.941 86.666 61.666 86.666C 61.39 86.666 61.166 86.891 61.166 87.166L 61.166 92L 52.166 92L 52.166 87.166C 52.166 86.891 51.942 86.666 51.666 86.666C 51.39 86.666 51.166 86.891 51.166 87.166L 51.166 92L 42.166 92L 42.166 87.166C 42.166 86.891 41.942 86.666 41.666 86.666C 41.39 86.666 41.166 86.891 41.166 87.166L 41.166 92L 32.166 92L 32.166 87.166C 32.166 86.891 31.942 86.666 31.666 86.666C 31.39 86.666 31.166 86.891 31.166 87.166L 31.166 92L 22.166 92L 22.166 87.166C 22.166 86.891 21.942 86.666 21.666 86.666C 21.39 86.666 21.166 86.891 21.166 87.166L 21.166 92L 3 92L 3 80.667L 7.016 80.667C 7.292 80.667 7.516 80.443 7.516 80.167C 7.516 79.891 7.292 79.667 7.016 79.667L 3 79.667L 3 70.667L 7.016 70.667C 7.292 70.667 7.516 70.443 7.516 70.167C 7.516 69.891 7.292 69.667 7.016 69.667L 3 69.667L 3 60.667L 7.016 60.667C 7.292 60.667 7.516 60.443 7.516 60.167C 7.516 59.891 7.292 59.667 7.016 59.667L 3 59.667L 3 50.667L 7.016 50.667C 7.292 50.667 7.516 50.443 7.516 50.167C 7.516 49.891 7.292 49.667 7.016 49.667L 3 49.667L 3 40.667L 7.016 40.667C 7.292 40.667 7.516 40.443 7.516 40.167C 7.516 39.891 7.292 39.667 7.016 39.667L 3 39.667L 3 30.667L 7.016 30.667C 7.292 30.667 7.516 30.443 7.516 30.167C 7.516 29.891 7.292 29.667 7.016 29.667L 3 29.667L 3 20.667L 7.016 20.667C 7.292 20.667 7.516 20.443 7.516 20.167C 7.516 19.891 7.292 19.667 7.016 19.667L 3 19.667L 3 10.667L 7.016 10.667C 7.292 10.667 7.516 10.443 7.516 10.167C 7.516 9.891 7.292 9.667 7.016 9.667L 3 9.667L 3 1.5C 3 0.672 2.328 -6.86645e-08 1.5 -6.86645e-08C 0.672 -6.86645e-08 0 0.672 0 1.5L 0 93.5C 0 94.328 0.672 95 1.5 95L 99.287 95C 100.115 95 100.787 94.328 100.787 93.5C 100.787 92.672 100.115 92 99.287 92Z"/>
<path id="path1_fill" d="M 10.25 0L 0 0L 0 67.795L 10.25 67.795L 10.25 0Z"/>
<path id="path2_fill" d="M 10.25 5.611C 8.908 3.857 7.82 1.97 6.988 -3.05176e-07L 1.00708e-06 -3.05176e-07L 1.00708e-06 41.5L 10.25 41.5L 10.25 5.611Z"/>
<path id="path3_fill" d="M 10.25 1.67C 9.918 1.684 9.586 1.705 9.254 1.705C 6.036 1.705 2.914 1.115 4.57764e-07 1.70898e-06L 4.57764e-07 27.461L 10.25 27.461L 10.25 1.67L 10.25 1.67Z"/>
<path id="path4_fill" d="M 10.25 10.008L 0.386998 -2.74658e-07C 0.259998 0.0779997 0.126997 0.146 -3.35693e-06 0.221L -3.35693e-06 29.631L 10.25 29.631L 10.25 10.008Z"/>
<path id="path5_fill" d="M 68.5605 64.8923L 40.8835 36.8092C 47.8235 27.8573 47.2055 14.8962 38.9885 6.68025C 30.0825 -2.22675 15.5885 -2.22675 6.6795 6.68025C -2.2265 15.5883 -2.2265 30.0802 6.6795 38.9893C 14.8965 47.2063 27.8555 47.8233 36.8095 40.8843L 64.4865 68.9652C 65.6115 70.0902 67.4335 70.0902 68.5585 68.9662C 69.6855 67.8412 69.6855 66.0173 68.5605 64.8923ZM 34.9185 34.9162C 28.2565 41.5782 17.4165 41.5792 10.7545 34.9162C 4.0925 28.2552 4.0935 17.4152 10.7545 10.7542C 17.4165 4.09325 28.2555 4.09125 34.9185 10.7542C 41.5805 17.4152 41.5805 28.2552 34.9185 34.9162Z"/>
<path id="path6_fill" d="M 7.18516 10.834C 4.57216 9.753 3.81615 9.099 3.81615 7.915C 3.81615 6.969 4.50916 5.863 6.46116 5.863C 8.29816 5.863 9.45416 6.524 9.94816 6.806C 10.0742 6.879 10.2262 6.891 10.3652 6.843C 10.5032 6.793 10.6112 6.687 10.6642 6.55L 11.4062 4.59C 11.4932 4.362 11.4022 4.105 11.1912 3.982C 10.1282 3.363 8.94316 3.008 7.58316 2.905L 7.58316 0.499999C 7.58316 0.223999 7.35916 -7.47681e-07 7.08316 -7.47681e-07L 5.24515 -7.47681e-07C 4.96915 -7.47681e-07 4.74515 0.223999 4.74515 0.499999L 4.74515 3.083C 2.01015 3.687 0.267157 5.686 0.267157 8.271C 0.267157 11.39 2.77115 12.804 5.47015 13.866C 7.62915 14.739 8.50915 15.628 8.50915 16.93C 8.50915 18.369 7.29115 19.336 5.48215 19.336C 4.08215 19.336 2.62615 18.902 1.48815 18.146C 1.36115 18.06 1.20116 18.04 1.05416 18.087C 0.907156 18.134 0.791156 18.248 0.741156 18.393L 0.0291546 20.378C -0.0458454 20.589 0.0271544 20.824 0.210154 20.954C 1.25015 21.696 2.90615 22.218 4.53715 22.331L 4.53715 24.847C 4.53715 25.123 4.76215 25.347 5.03715 25.347L 6.90516 25.347C 7.18116 25.347 7.40516 25.123 7.40516 24.847L 7.40516 22.176C 10.2242 21.545 12.0912 19.398 12.0912 16.722C 12.0902 13.995 10.6222 12.234 7.18516 10.834Z"/>
</defs>
</svg>
