<svg width="512" height="434" viewBox="0 0 512 434" version="1.1" xmlns="http://www.w3.org/2000/svg" xmlns:xlink="http://www.w3.org/1999/xlink">
<title>005-piggybank</title>
<desc>Created using Figma</desc>
<g id="Canvas" transform="translate(1635 -2322)">
<g id="005-piggybank">
<g id="Group">
<g id="Group">
<g id="Vector">
<use xlink:href="#path0_fill" transform="translate(-1382.8 2635.07)" fill="#A4A4A4"/>
</g>
</g>
</g>
<g id="Group">
<g id="Group">
<g id="Vector">
<use xlink:href="#path1_fill" transform="translate(-1635 2322)" fill="#A4A4A4"/>
</g>
</g>
</g>
<g id="Group">
<g id="Group">
<g id="Vector">
<use xlink:href="#path2_fill" transform="translate(-1277.65 2495.93)" fill="#A4A4A4"/>
</g>
</g>
</g>
<g id="Group">
<g id="Group">
<g id="Vector">
<use xlink:href="#path3_fill" transform="translate(-1478.46 2474.19)" fill="#A4A4A4"/>
</g>
</g>
</g>
</g>
</g>
<defs>
<path id="path0_fill" d="M 8.15299 1.00098e-05C 3.64999 1.00098e-05 7.32422e-06 3.64999 7.32422e-06 8.15299L 7.32422e-06 25.543C 7.32422e-06 30.046 3.64999 33.696 8.15299 33.696C 12.656 33.696 16.306 30.046 16.306 25.543L 16.306 8.15299C 16.306 3.64999 12.656 1.00098e-05 8.15299 1.00098e-05Z"/>
<path id="path1_fill" d="M 507.064 196.255C 503.882 193.073 499.653 191.321 495.152 191.321C 495.151 191.321 495.15 191.321 495.149 191.321L 474.22 191.324C 473.955 191.324 473.773 191.026 473.717 190.75C 467.964 162.532 455.063 135.93 436.407 113.818C 418.375 92.4456 395.28 75.6376 369.527 65.0806C 365.373 47.5446 356.602 29.4646 339.305 15.8736C 322.559 2.71558 305.693 0.183585 304.984 0.0815851C 302.648 -0.251415 300.275 0.444584 298.489 1.99358C 296.703 3.54258 295.678 5.78858 295.678 8.15258L 295.678 52.1786L 266.09 52.1786C 258.778 27.0886 235.59 8.69658 208.171 8.69658C 180.17 8.69658 156.568 27.8736 149.795 53.7816C 109.483 59.2726 72.395 78.8026 44.875 109.168C 15.937 141.101 0 182.437 0 225.564C 0 322.365 50.255 401.128 65.659 422.961C 70.417 429.706 78.21 433.734 86.505 433.734L 121.206 433.734C 135.292 433.734 146.752 422.274 146.752 408.188L 146.752 396.903C 155.533 398.255 164.454 398.948 173.385 398.948L 252.196 398.948L 252.196 408.188C 252.196 422.274 263.656 433.734 277.742 433.734L 315.859 433.734C 327.825 433.734 338.33 425.241 340.837 413.541L 345.021 394.017C 398.605 380.968 441.688 343.376 462.893 294.593L 495.151 294.593C 504.442 294.593 512 287.035 512 277.744L 512 208.172C 512 203.669 510.248 199.438 507.064 196.255ZM 208.17 25.0036C 232.446 25.0036 252.195 44.7536 252.195 69.0296C 252.195 75.2376 250.866 81.3526 248.362 86.9656L 167.977 86.9656C 165.474 81.3506 164.144 75.2376 164.144 69.0296C 164.144 44.7526 183.894 25.0036 208.17 25.0036ZM 495.694 277.742C 495.694 278.042 495.451 278.286 495.15 278.286L 469.022 278.286C 473.463 264.382 476.196 249.76 476.978 234.682C 477.212 230.186 473.755 226.351 469.258 226.118C 464.761 225.89 460.927 229.341 460.694 233.838C 457.24 300.43 411.916 357.287 348.862 376.09L 360.253 322.935C 361.197 318.532 358.392 314.198 353.989 313.255C 349.589 312.309 345.252 315.116 344.309 319.519L 324.893 410.123C 323.986 414.355 320.186 417.427 315.859 417.427L 277.74 417.427C 272.645 417.427 268.5 413.282 268.5 408.187L 268.5 373.401C 268.5 368.898 264.85 365.248 260.347 365.248C 255.844 365.248 252.194 368.898 252.194 373.401L 252.194 382.641L 173.383 382.641C 164.438 382.641 155.509 381.872 146.75 380.379L 146.75 321.224C 146.75 316.721 143.1 313.071 138.597 313.071C 134.094 313.071 130.444 316.721 130.444 321.224L 130.444 408.188C 130.444 413.283 126.299 417.428 121.204 417.428L 86.505 417.428C 83.457 417.428 80.715 416.019 78.983 413.562C 64.28 392.719 16.306 317.565 16.306 225.563C 16.306 186.491 30.743 149.043 56.957 120.118C 80.947 93.6446 112.956 76.2646 147.864 70.5566C 148.005 76.1436 148.921 81.6676 150.565 86.9636L 147.295 86.9636C 142.792 86.9636 139.142 90.6136 139.142 95.1166C 139.142 99.6196 142.792 103.27 147.295 103.27L 269.045 103.27C 273.548 103.27 277.198 99.6196 277.198 95.1166C 277.198 90.6136 273.548 86.9636 269.045 86.9636L 265.774 86.9636C 267.569 81.1846 268.501 75.1356 268.501 69.0276C 268.501 68.8446 268.489 68.6656 268.487 68.4836L 295.677 68.4836L 295.677 86.4196C 295.677 90.9226 299.327 94.5726 303.83 94.5726C 308.333 94.5726 311.983 90.9226 311.983 86.4196L 311.983 18.8576C 327.452 24.7116 356.552 42.6926 356.552 95.1176C 356.552 99.6206 360.202 103.271 364.705 103.271C 369.208 103.271 372.858 99.6206 372.858 95.1176C 372.858 91.6636 372.733 88.0166 372.447 84.2476C 392.114 93.8276 409.758 107.52 423.945 124.335C 440.845 144.366 452.531 168.458 457.74 194.008C 459.349 201.903 466.281 207.632 474.223 207.631L 495.152 207.629C 495.207 207.629 495.377 207.629 495.536 207.788C 495.695 207.947 495.695 208.115 495.695 208.172L 495.695 277.742L 495.694 277.742Z"/>
<path id="path2_fill" d="M 67.1719 22.698C 62.1119 9.122 48.7169 4.63867e-06 33.8449 4.63867e-06C 18.9719 4.63867e-06 5.57888 9.121 0.515884 22.698C -1.05712 26.917 1.0879 31.612 5.3069 33.185C 9.5269 34.76 14.2219 32.613 15.7939 28.394C 18.4899 21.164 25.7439 16.306 33.8439 16.306C 41.9439 16.306 49.1989 21.164 51.8939 28.394C 53.1169 31.675 56.2269 33.701 59.5339 33.701C 60.4809 33.701 61.4429 33.535 62.3809 33.185C 66.5999 31.612 68.7449 26.916 67.1719 22.698Z"/>
<path id="path3_fill" d="M 59.788 67.159L 59.788 25.495C 75.782 27.439 86.964 34.849 86.964 41.58C 86.964 46.083 90.614 49.733 95.117 49.733C 99.62 49.733 103.27 46.083 103.27 41.58C 103.27 24.912 84.736 11.511 59.788 9.09L 59.788 8.15301C 59.788 3.65001 56.138 7.32422e-06 51.635 7.32422e-06C 47.132 7.32422e-06 43.482 3.65001 43.482 8.15301L 43.482 9.09C 18.534 11.511 3.66211e-06 24.912 3.66211e-06 41.58C 3.66211e-06 65.387 23.52 73.979 43.482 79.593L 43.482 121.257C 27.488 119.313 16.306 111.903 16.306 105.172C 16.306 100.669 12.656 97.019 8.153 97.019C 3.65 97.019 3.66211e-06 100.669 3.66211e-06 105.172C 3.66211e-06 121.84 18.534 135.241 43.482 137.662L 43.482 138.599C 43.482 143.102 47.132 146.752 51.635 146.752C 56.138 146.752 59.788 143.102 59.788 138.599L 59.788 137.662C 84.736 135.241 103.27 121.84 103.27 105.172C 103.27 81.364 79.749 72.773 59.788 67.159ZM 43.482 62.523C 23.402 56.224 16.306 50.5 16.306 41.58C 16.306 34.849 27.488 27.439 43.482 25.495L 43.482 62.523ZM 59.788 121.258L 59.788 84.23C 79.868 90.528 86.964 96.253 86.964 105.173C 86.964 111.904 75.781 119.314 59.788 121.258Z"/>
</defs>
</svg>
