<svg width="58" height="49" viewBox="0 0 58 49" version="1.1" xmlns="http://www.w3.org/2000/svg" xmlns:xlink="http://www.w3.org/1999/xlink">
<title>009-notes</title>
<desc>Created using Figma</desc>
<g id="Canvas" transform="translate(1815 -1064)">
<g id="009-notes">
<g id="Group">
<g id="Vector">
<use xlink:href="#path0_fill" transform="translate(-1815 1064)" fill="#FFFFFF"/>
</g>
<g id="Vector">
<use xlink:href="#path1_fill" transform="translate(-1812 1067)" fill="#FFFFFF"/>
</g>
<g id="Vector">
<use xlink:href="#path2_fill" transform="translate(-1767 1067)" fill="#FFFFFF"/>
</g>
<g id="Vector">
<use xlink:href="#path2_fill" transform="translate(-1812 1088)" fill="#FFFFFF"/>
</g>
<g id="Vector">
<use xlink:href="#path2_fill" transform="translate(-1767 1088)" fill="#FFFFFF"/>
</g>
</g>
</g>
</g>
<defs>
<path id="path0_fill" d="M 36 0L 22 0L 0 0L 0 32L 0 34L 0 35L 0 37L 0 38L 0 40L 0 41L 0 43L 0 44L 0 46L 0 49L 22 49L 24 49L 34 49L 36 49L 58 49L 58 46L 58 44L 58 43L 58 41L 58 40L 58 38L 58 37L 58 35L 58 34L 58 32L 58 0L 36 0ZM 34 2L 34 3.825L 34 30.176L 34 32L 24 32L 24 30.175L 24 3.825L 24 2L 34 2ZM 36.784 7.896C 37.04 8.114 37.282 8.343 37.517 8.579C 37.635 8.698 37.753 8.815 37.866 8.938C 38.078 9.17 38.275 9.413 38.467 9.659C 38.58 9.804 38.695 9.946 38.801 10.096C 38.97 10.334 39.121 10.583 39.272 10.832C 39.375 11.003 39.483 11.172 39.578 11.348C 39.709 11.592 39.82 11.846 39.934 12.098C 40.02 12.29 40.114 12.479 40.19 12.675C 40.29 12.934 40.368 13.202 40.45 13.469C 40.511 13.668 40.583 13.863 40.634 14.066C 40.71 14.368 40.759 14.677 40.811 14.986C 40.841 15.161 40.884 15.333 40.906 15.51C 40.966 16 41 16.497 41 17C 41 17.503 40.966 18 40.906 18.49C 40.884 18.667 40.841 18.838 40.811 19.014C 40.759 19.323 40.71 19.633 40.634 19.935C 40.583 20.137 40.512 20.332 40.45 20.531C 40.368 20.798 40.29 21.066 40.19 21.325C 40.114 21.522 40.02 21.71 39.934 21.902C 39.82 22.155 39.709 22.408 39.578 22.652C 39.484 22.828 39.375 22.996 39.272 23.168C 39.122 23.417 38.97 23.666 38.801 23.904C 38.695 24.054 38.58 24.196 38.467 24.341C 38.275 24.588 38.078 24.831 37.866 25.063C 37.754 25.186 37.636 25.303 37.518 25.421C 37.283 25.657 37.04 25.887 36.785 26.105C 36.665 26.207 36.541 26.306 36.417 26.403C 36.283 26.508 36.14 26.603 36.001 26.703L 36.001 7.297C 36.14 7.397 36.284 7.492 36.417 7.597C 36.541 7.695 36.664 7.793 36.784 7.896ZM 38.787 7L 45.018 7C 45.262 10.187 47.813 12.737 50.999 12.981L 50.999 21.019C 47.812 21.263 45.262 23.813 45.018 27L 38.787 27C 38.791 26.996 38.795 26.992 38.799 26.988C 39.114 26.68 39.412 26.359 39.695 26.025C 39.715 26.001 39.736 25.978 39.756 25.954C 40.035 25.62 40.298 25.275 40.544 24.917C 40.577 24.87 40.606 24.821 40.638 24.773C 40.839 24.472 41.028 24.163 41.205 23.848C 41.251 23.766 41.299 23.685 41.343 23.602C 41.533 23.247 41.71 22.886 41.868 22.516C 41.901 22.439 41.929 22.36 41.96 22.282C 42.085 21.976 42.198 21.666 42.301 21.351C 42.338 21.238 42.375 21.126 42.409 21.013C 42.524 20.63 42.626 20.242 42.708 19.847C 42.72 19.789 42.727 19.73 42.739 19.671C 42.807 19.318 42.86 18.96 42.901 18.6C 42.914 18.487 42.926 18.374 42.936 18.261C 42.974 17.844 43 17.424 43 17C 43 16.576 42.974 16.156 42.937 15.74C 42.927 15.626 42.915 15.514 42.902 15.401C 42.861 15.041 42.808 14.683 42.74 14.33C 42.729 14.272 42.721 14.212 42.709 14.154C 42.627 13.759 42.525 13.372 42.41 12.988C 42.376 12.874 42.339 12.762 42.302 12.65C 42.199 12.335 42.086 12.025 41.961 11.719C 41.929 11.641 41.902 11.562 41.869 11.485C 41.71 11.115 41.533 10.753 41.344 10.399C 41.3 10.316 41.252 10.235 41.206 10.153C 41.029 9.837 40.84 9.529 40.639 9.228C 40.607 9.18 40.577 9.131 40.545 9.084C 40.299 8.727 40.036 8.381 39.757 8.047C 39.737 8.023 39.716 8 39.696 7.976C 39.413 7.642 39.115 7.32 38.8 7.013C 38.795 7.008 38.791 7.004 38.787 7ZM 21.216 26.104C 20.96 25.886 20.717 25.657 20.483 25.42C 20.366 25.302 20.247 25.185 20.135 25.062C 19.923 24.83 19.726 24.587 19.534 24.34C 19.421 24.195 19.306 24.053 19.2 23.903C 19.031 23.665 18.88 23.416 18.729 23.167C 18.626 22.996 18.518 22.827 18.423 22.651C 18.292 22.407 18.181 22.153 18.067 21.901C 17.981 21.709 17.887 21.52 17.811 21.324C 17.711 21.065 17.633 20.796 17.551 20.53C 17.49 20.331 17.418 20.136 17.367 19.934C 17.291 19.632 17.242 19.322 17.19 19.013C 17.16 18.838 17.117 18.667 17.095 18.489C 17.034 18 17 17.503 17 17C 17 16.497 17.034 16 17.094 15.51C 17.116 15.333 17.159 15.161 17.189 14.986C 17.241 14.677 17.29 14.367 17.366 14.066C 17.417 13.863 17.488 13.668 17.55 13.469C 17.632 13.203 17.71 12.934 17.81 12.675C 17.886 12.478 17.98 12.29 18.066 12.098C 18.18 11.845 18.291 11.592 18.422 11.348C 18.516 11.172 18.625 11.004 18.728 10.832C 18.878 10.583 19.03 10.334 19.199 10.096C 19.305 9.946 19.42 9.804 19.533 9.659C 19.725 9.413 19.922 9.17 20.134 8.938C 20.246 8.815 20.365 8.698 20.483 8.579C 20.718 8.343 20.96 8.114 21.216 7.896C 21.336 7.794 21.46 7.695 21.584 7.598C 21.718 7.493 21.861 7.398 22 7.298L 22 26.703C 21.861 26.603 21.717 26.508 21.584 26.403C 21.459 26.305 21.336 26.207 21.216 26.104ZM 19.213 27L 12.982 27C 12.738 23.813 10.187 21.263 7.001 21.019L 7.001 12.981C 10.188 12.737 12.738 10.187 12.982 7L 19.213 7C 19.209 7.004 19.205 7.008 19.201 7.012C 18.886 7.32 18.588 7.641 18.305 7.975C 18.285 7.999 18.264 8.022 18.244 8.046C 17.965 8.38 17.702 8.725 17.456 9.083C 17.423 9.13 17.394 9.179 17.362 9.227C 17.161 9.528 16.972 9.837 16.795 10.152C 16.749 10.234 16.701 10.315 16.657 10.398C 16.467 10.753 16.29 11.114 16.132 11.484C 16.099 11.561 16.071 11.64 16.04 11.718C 15.915 12.024 15.802 12.334 15.699 12.649C 15.662 12.762 15.625 12.874 15.591 12.987C 15.476 13.37 15.374 13.758 15.292 14.153C 15.28 14.211 15.273 14.27 15.261 14.329C 15.193 14.682 15.14 15.04 15.099 15.4C 15.086 15.513 15.074 15.626 15.064 15.739C 15.026 16.156 15 16.576 15 17C 15 17.424 15.026 17.844 15.063 18.26C 15.073 18.374 15.085 18.486 15.098 18.599C 15.139 18.959 15.192 19.317 15.26 19.67C 15.271 19.728 15.279 19.788 15.291 19.846C 15.373 20.241 15.475 20.628 15.59 21.012C 15.624 21.126 15.661 21.238 15.698 21.35C 15.801 21.665 15.914 21.975 16.039 22.281C 16.071 22.359 16.098 22.438 16.131 22.515C 16.29 22.885 16.467 23.247 16.656 23.601C 16.7 23.684 16.748 23.765 16.794 23.847C 16.971 24.163 17.16 24.471 17.361 24.772C 17.393 24.82 17.423 24.869 17.455 24.916C 17.701 25.273 17.964 25.619 18.243 25.953C 18.263 25.977 18.284 26 18.304 26.024C 18.587 26.358 18.885 26.68 19.2 26.987C 19.205 26.992 19.209 26.996 19.213 27ZM 2 2L 22 2L 22 4.891C 21.936 4.928 21.871 4.962 21.808 5L 11.974 5C 11.694 5 11.426 5.118 11.237 5.325C 11.048 5.532 10.954 5.809 10.978 6.089C 10.99 6.224 11 6.361 11 6.5C 11 8.981 8.981 11 6.5 11C 6.362 11 6.227 10.991 6.092 10.979C 5.803 10.954 5.533 11.046 5.326 11.236C 5.118 11.425 5 11.693 5 11.975L 5 22.026C 5 22.307 5.118 22.575 5.326 22.765C 5.533 22.954 5.802 23.047 6.092 23.022C 6.227 23.009 6.362 23 6.5 23C 8.981 23 11 25.019 11 27.5C 11 27.639 10.99 27.776 10.979 27.912C 10.955 28.191 11.048 28.469 11.238 28.676C 11.428 28.883 11.695 29.001 11.975 29.001L 21.809 29.001C 21.872 29.039 21.937 29.073 22.001 29.11L 22.001 32L 2 32L 2 2ZM 2 34L 22 34L 22 35L 2 35L 2 34ZM 2 37L 22 37L 22 38L 2 38L 2 37ZM 2 40L 22 40L 22 41L 2 41L 2 40ZM 2 43L 22 43L 22 44L 2 44L 2 43ZM 22 47L 2 47L 2 46L 22 46L 22 47ZM 34 47L 24 47L 24 46L 24 44L 24 43L 24 41L 24 40L 24 38L 24 37L 24 35L 24 34L 34 34L 34 35L 34 37L 34 38L 34 40L 34 41L 34 43L 34 44L 34 46L 34 47ZM 56 47L 36 47L 36 46L 56 46L 56 47ZM 56 44L 36 44L 36 43L 56 43L 56 44ZM 56 41L 36 41L 36 40L 56 40L 56 41ZM 56 38L 36 38L 36 37L 56 37L 56 38ZM 56 35L 36 35L 36 34L 56 34L 56 35ZM 36 32L 36 29.109C 36.064 29.072 36.129 29.038 36.192 29L 46.026 29C 46.306 29 46.574 28.882 46.763 28.675C 46.952 28.468 47.046 28.191 47.022 27.911C 47.01 27.776 47 27.639 47 27.5C 47 25.019 49.019 23 51.5 23C 51.638 23 51.773 23.009 51.908 23.021C 52.197 23.048 52.467 22.954 52.674 22.764C 52.882 22.575 53 22.307 53 22.025L 53 11.975C 53 11.694 52.882 11.426 52.674 11.236C 52.467 11.047 52.196 10.953 51.908 10.979C 51.773 10.991 51.638 11 51.5 11C 49.019 11 47 8.981 47 6.5C 47 6.361 47.01 6.224 47.021 6.088C 47.045 5.809 46.952 5.531 46.762 5.324C 46.572 5.117 46.306 5 46.025 5L 36.191 5C 36.129 4.962 36.064 4.928 36 4.891L 36 2L 56 2L 56 32L 36 32Z"/>
<path id="path1_fill" d="M 3.5 7C 5.43 7 7 5.43 7 3.5C 7 1.57 5.43 0 3.5 0C 1.57 0 0 1.57 0 3.5C 0 5.43 1.57 7 3.5 7ZM 3.5 2C 4.327 2 5 2.673 5 3.5C 5 4.327 4.327 5 3.5 5C 2.673 5 2 4.327 2 3.5C 2 2.673 2.673 2 3.5 2Z"/>
<path id="path2_fill" d="M 3.5 0C 1.57 0 0 1.57 0 3.5C 0 5.43 1.57 7 3.5 7C 5.43 7 7 5.43 7 3.5C 7 1.57 5.43 0 3.5 0ZM 3.5 5C 2.673 5 2 4.327 2 3.5C 2 2.673 2.673 2 3.5 2C 4.327 2 5 2.673 5 3.5C 5 4.327 4.327 5 3.5 5Z"/>
</defs>
</svg>
