<svg width="99" height="99" viewBox="0 0 99 99" version="1.1" xmlns="http://www.w3.org/2000/svg" xmlns:xlink="http://www.w3.org/1999/xlink">
<title>015-home 2</title>
<desc>Created using Figma</desc>
<g id="Canvas" transform="matrix(3 0 0 3 5499 -3876)">
<g id="015-home 2">
<g id="Vector">
<use xlink:href="#path0_fill" transform="translate(-1833 1292)" fill="#FFFFFF"/>
</g>
</g>
</g>
<defs>
<path id="path0_fill" d="M 27.419 32.9999L 20.203 32.9999C 19.927 32.9999 19.703 32.7759 19.703 32.4999L 19.703 22.3199L 12.836 22.3199L 12.836 32.4999C 12.836 32.7759 12.612 32.9999 12.336 32.9999L 5.11798 32.9999C 4.84198 32.9999 4.61798 32.7759 4.61798 32.4999L 4.61798 15.8929L 0.49998 15.8929C 0.29498 15.8929 0.11098 15.7679 0.0349801 15.5779C -0.0400199 15.3879 0.00798014 15.1709 0.15598 15.0299L 15.924 0.136875C 16.117 -0.0461247 16.418 -0.0451247 16.612 0.136875L 32.384 15.0299C 32.532 15.1709 32.58 15.3879 32.505 15.5779C 32.429 15.7679 32.245 15.8929 32.04 15.8929L 27.919 15.8929L 27.919 32.4999C 27.919 32.7759 27.695 32.9999 27.419 32.9999ZM 20.703 31.9999L 26.919 31.9999L 26.919 15.3929C 26.919 15.1169 27.143 14.8929 27.419 14.8929L 30.782 14.8929L 16.268 1.18788L 1.75798 14.8929L 5.11798 14.8929C 5.39398 14.8929 5.61798 15.1169 5.61798 15.3929L 5.61798 31.9999L 11.836 31.9999L 11.836 21.8199C 11.836 21.5439 12.06 21.3199 12.336 21.3199L 20.203 21.3199C 20.479 21.3199 20.703 21.5439 20.703 21.8199L 20.703 31.9999Z"/>
</defs>
</svg>
