<svg width="482" height="425" viewBox="0 0 482 425" version="1.1" xmlns="http://www.w3.org/2000/svg" xmlns:xlink="http://www.w3.org/1999/xlink">
<title>001-cash</title>
<desc>Created using Figma</desc>
<g id="Canvas" transform="translate(3276 -1912)">
<g id="001-cash">
<g id="Group">
<g id="Group">
<g id="Vector">
<use xlink:href="#path0_fill" transform="translate(-3276 2164.82)" fill="#A4A4A4"/>
</g>
<g id="Vector">
<use xlink:href="#path1_fill" transform="translate(-3224.51 2148.41)" fill="#A4A4A4"/>
</g>
<g id="Vector">
<use xlink:href="#path2_fill" transform="translate(-3088.56 2018)" fill="#A4A4A4"/>
</g>
<g id="Vector">
<use xlink:href="#path3_fill" transform="translate(-2991.06 1912)" fill="#A4A4A4"/>
</g>
</g>
</g>
</g>
</g>
<defs>
<path id="path0_fill" d="M 180.116 26.9788L 258.616 50.7788C 258.516 51.2788 258.316 51.8788 258.116 52.3788C 256.016 58.0788 251.716 61.2788 244.716 62.3788C 218.916 66.4788 176.116 63.8788 175.716 63.8788C 169.116 63.4788 163.416 68.4788 163.016 75.0788C 162.616 81.6788 167.616 87.3788 174.216 87.7788C 176.116 87.8788 220.016 90.5788 248.516 85.9788C 276.816 81.4788 284.916 56.5788 283.416 40.8788C 282.916 35.9788 279.616 31.8788 274.916 30.4788L 187.016 3.87882C 143.616 -9.22118 96.0158 14.9788 94.0158 15.9788C 93.8158 16.0788 93.5158 16.1788 93.3158 16.3788L 5.81577 69.2788C 0.115767 72.6788 -1.68423 80.0788 1.71577 85.7788C 4.01577 89.4788 7.91577 91.5788 12.0158 91.5788C 14.1158 91.5788 16.2158 90.9788 18.2158 89.8788L 105.316 37.3788C 109.116 35.3788 147.416 17.0788 180.116 26.9788Z"/>
<path id="path1_fill" d="M 428.223 23.2891C 421.323 10.6891 399.823 -9.41091 367.223 4.98909C 336.423 18.6891 271.323 49.9891 270.623 50.2891C 264.623 53.1891 262.123 60.2891 265.023 66.2891C 267.923 72.2891 275.123 74.7891 281.023 71.8891C 281.723 71.5891 346.423 40.3891 376.923 26.8891C 385.623 22.9891 392.923 22.9891 399.223 26.8891C 399.423 26.9891 399.523 27.0891 399.723 27.1891L 236.623 146.689C 225.023 155.189 210.323 158.689 196.223 156.489L 50.7232 133.289C 47.3232 132.789 43.8231 133.689 41.1231 135.889L 4.32315 166.589C -0.776846 170.789 -1.47685 178.389 2.82315 183.489C 5.22315 186.289 8.62315 187.789 12.0232 187.789C 14.7232 187.789 17.4232 186.889 19.7232 184.989L 52.3232 157.789L 192.523 180.189C 212.923 183.489 234.223 178.289 250.923 166.089L 424.923 38.6891C 429.623 35.0891 431.123 28.5891 428.223 23.2891Z"/>
<path id="path2_fill" d="M 69.975 139.9C 88.675 139.9 106.175 132.6 119.475 119.4C 146.775 92.1 146.775 47.8 119.475 20.5C 106.275 7.3 88.675 1.09863e-06 69.975 1.09863e-06C 51.275 1.09863e-06 33.775 7.3 20.475 20.5C -6.825 47.8 -6.825 92.1 20.475 119.4C 33.775 132.6 51.275 139.9 69.975 139.9ZM 37.475 37.5C 46.175 28.8 57.675 24 69.975 24C 82.275 24 93.775 28.8 102.475 37.5C 120.375 55.4 120.375 84.6 102.475 102.5C 93.775 111.2 82.275 116 69.975 116C 57.675 116 46.175 111.2 37.475 102.5C 19.575 84.6 19.575 55.4 37.475 37.5Z"/>
<path id="path3_fill" d="M 54.575 109.2C 69.175 109.2 82.875 103.5 93.175 93.2C 114.475 71.9 114.475 37.3 93.175 16C 82.875 5.7 69.175 -8.08716e-07 54.575 -8.08716e-07C 39.975 -8.08716e-07 26.275 5.7 15.975 16C -5.32501 37.3 -5.32501 71.9 15.975 93.2C 26.275 103.6 40.075 109.2 54.575 109.2ZM 32.975 33C 38.775 27.2 46.475 24 54.675 24C 62.875 24 70.575 27.2 76.375 33C 88.275 44.9 88.275 64.4 76.375 76.3C 70.575 82.1 62.875 85.3 54.675 85.3C 46.475 85.3 38.775 82.1 32.975 76.3C 21.075 64.3 21.075 44.9 32.975 33Z"/>
</defs>
</svg>
