<svg width="479" height="479" viewBox="0 0 479 479" version="1.1" xmlns="http://www.w3.org/2000/svg" xmlns:xlink="http://www.w3.org/1999/xlink">
<title>016-settings</title>
<desc>Created using Figma</desc>
<g id="Canvas" transform="translate(1851 -436)">
<g id="016-settings">
<g id="Group">
<g id="Group">
<g id="Vector">
<use xlink:href="#path0_fill" transform="translate(-1851 436)" fill="#FFFFFF"/>
</g>
<g id="Vector">
<use xlink:href="#path1_fill" transform="translate(-1714.9 572)" fill="#FFFFFF"/>
</g>
</g>
</g>
</g>
</g>
<defs>
<path id="path0_fill" d="M 454.2 189.1L 420.6 183.4C 417.1 172.1 412.6 161.2 407.1 150.8L 426.9 123.1C 435.3 111.3 434 95.2 423.7 85L 393.9 55.2C 388.3 49.6 380.9 46.5 373 46.5C 366.8 46.5 360.9 48.4 355.9 52L 328.1 71.8C 317.3 66.1 306 61.4 294.3 57.9L 288.7 24.7C 286.3 10.4 274 4.74962e-11 259.5 4.74962e-11L 217.4 4.74962e-11C 202.9 4.74962e-11 190.6 10.4 188.2 24.7L 182.4 58.7C 171.2 62.2 160.3 66.8 149.9 72.4L 122.4 52.6C 117.4 49 111.4 47.1 105.2 47.1C 97.3 47.1 89.8 50.2 84.3 55.8L 54.4 85.6C 44.2 95.8 42.8 111.9 51.2 123.7L 71.2 151.8C 65.7 162.3 61.3 173.2 57.9 184.5L 24.7 190.1C 10.4 192.5 0 204.8 0 219.3L 0 261.4C 0 275.9 10.4 288.2 24.7 290.6L 58.7 296.4C 62.2 307.6 66.8 318.5 72.4 328.9L 52.7 356.3C 44.3 368.1 45.6 384.2 55.9 394.4L 85.7 424.2C 91.3 429.8 98.7 432.9 106.6 432.9C 112.8 432.9 118.7 431 123.7 427.4L 151.8 407.4C 161.9 412.7 172.5 417 183.4 420.4L 189 454C 191.4 468.3 203.7 478.7 218.2 478.7L 260.4 478.7C 274.9 478.7 287.2 468.3 289.6 454L 295.3 420.4C 306.6 416.9 317.5 412.4 327.9 406.9L 355.6 426.7C 360.6 430.3 366.6 432.2 372.8 432.2C 380.7 432.2 388.1 429.1 393.7 423.5L 423.5 393.7C 433.7 383.5 435.1 367.4 426.7 355.6L 406.9 327.8C 412.4 317.3 417 306.4 420.4 295.2L 454 289.6C 468.3 287.2 478.7 274.9 478.7 260.4L 478.7 218.3C 478.9 203.8 468.5 191.5 454.2 189.1ZM 451.9 260.4C 451.9 261.7 451 262.8 449.7 263L 407.7 270C 402.4 270.9 398.2 274.8 396.9 279.9C 393.1 294.6 387.3 308.7 379.5 321.8C 376.8 326.4 377 332.1 380.1 336.5L 404.8 371.3C 405.5 372.3 405.4 373.8 404.5 374.7L 374.7 404.5C 374 405.2 373.3 405.3 372.8 405.3C 372.2 405.3 371.7 405.1 371.3 404.8L 336.6 380.1C 332.3 377 326.5 376.8 321.9 379.5C 308.8 387.3 294.7 393.1 280 396.9C 274.8 398.2 270.9 402.5 270.1 407.7L 263 449.7C 262.8 451 261.7 451.9 260.4 451.9L 218.3 451.9C 217 451.9 215.9 451 215.7 449.7L 208.7 407.7C 207.8 402.4 203.9 398.2 198.8 396.9C 184.5 393.2 170.7 387.5 157.8 380.1C 155.7 378.9 153.3 378.3 151 378.3C 148.3 378.3 145.5 379.1 143.2 380.8L 108.2 405.7C 107.7 406 107.2 406.2 106.7 406.2C 106.3 406.2 105.5 406.1 104.8 405.4L 75 375.6C 74.1 374.7 74 373.3 74.7 372.2L 99.3 337.7C 102.4 333.3 102.6 327.5 99.9 322.9C 92.1 309.9 86.1 295.8 82.3 281.1C 80.9 276 76.7 272.1 71.5 271.2L 29.2 264C 27.9 263.8 27 262.7 27 261.4L 27 219.3C 27 218 27.9 216.9 29.2 216.7L 70.9 209.7C 76.2 208.8 80.5 204.9 81.8 199.7C 85.5 185 91.2 170.8 98.9 157.7C 101.6 153.1 101.3 147.4 98.2 143.1L 73.3 108.1C 72.6 107.1 72.7 105.6 73.6 104.7L 103.4 74.9C 104.1 74.2 104.8 74.1 105.3 74.1C 105.9 74.1 106.4 74.3 106.8 74.6L 141.3 99.2C 145.7 102.3 151.5 102.5 156.1 99.8C 169.1 92 183.2 86 197.9 82.2C 203 80.8 206.9 76.6 207.8 71.4L 215 29.1C 215.2 27.8 216.3 26.9 217.6 26.9L 259.7 26.9C 261 26.9 262.1 27.8 262.3 29.1L 269.3 70.8C 270.2 76.1 274.1 80.4 279.3 81.7C 294.4 85.5 308.8 91.4 322.2 99.3C 326.8 102 332.5 101.8 336.9 98.7L 371.4 73.9C 371.9 73.6 372.4 73.4 372.9 73.4C 373.3 73.4 374.1 73.5 374.8 74.2L 404.6 104C 405.5 104.9 405.6 106.3 404.9 107.4L 380.2 142.1C 377.1 146.4 376.9 152.2 379.6 156.8C 387.4 169.9 393.2 184 397 198.7C 398.3 203.9 402.6 207.8 407.8 208.6L 449.8 215.7C 451.1 215.9 452 217 452 218.3L 452 260.4L 451.9 260.4L 451.9 260.4Z"/>
<path id="path1_fill" d="M 103.3 7.08008e-06C 46.3 7.08008e-06 6.10352e-06 46.3 6.10352e-06 103.3C 6.10352e-06 160.3 46.3 206.6 103.3 206.6C 160.3 206.6 206.6 160.3 206.6 103.3C 206.6 46.3 160.3 7.08008e-06 103.3 7.08008e-06ZM 103.3 179.6C 61.2 179.6 27 145.4 27 103.3C 27 61.2 61.2 27 103.3 27C 145.4 27 179.6 61.2 179.6 103.3C 179.6 145.4 145.4 179.6 103.3 179.6Z"/>
</defs>
</svg>
