<svg width="470" height="512" viewBox="0 0 470 512" version="1.1" xmlns="http://www.w3.org/2000/svg" xmlns:xlink="http://www.w3.org/1999/xlink">
<title>007-turn-off</title>
<desc>Created using Figma</desc>
<g id="Canvas" transform="translate(1368 -992)">
<g id="007-turn-off">
<g id="Group">
<g id="Group">
<g id="Group">
<g id="Vector">
<use xlink:href="#path0_fill" transform="translate(-1368 1052.41)" fill="#EA1E1E"/>
</g>
<g id="Vector">
<use xlink:href="#path1_fill" transform="translate(-1154.68 992)" fill="#EA1E1E"/>
</g>
</g>
</g>
</g>
</g>
</g>
<defs>
<path id="path0_fill" d="M 328.519 1.78962C 317.722 -2.92738 305.146 2.00162 300.429 12.7986C 295.712 23.5956 300.641 36.1716 311.438 40.8886C 380.85 71.2126 426.666 139.866 426.666 216.924C 426.666 322.958 340.694 408.924 234.666 408.924C 128.624 408.924 42.666 322.966 42.666 216.924C 42.666 139.883 88.466 71.2296 157.858 40.8856C 168.653 36.1656 173.578 23.5876 168.857 12.7926C 164.137 1.99761 151.559 -2.92738 140.764 1.79362C 55.975 38.8686 -6.2561e-07 122.775 -6.2561e-07 216.923C -6.2561e-07 346.529 105.061 451.59 234.667 451.59C 364.259 451.59 469.334 346.522 469.334 216.923C 469.334 122.753 413.336 38.8426 328.519 1.78962Z"/>
<path id="path1_fill" d="M 21.333 234.667C 33.115 234.667 42.666 225.116 42.666 213.334L 42.666 21.334C 42.667 9.551 33.115 0 21.333 0C 9.551 0 5.85938e-06 9.551 5.85938e-06 21.333L 5.85938e-06 213.333C 5.85938e-06 225.115 9.551 234.667 21.333 234.667Z"/>
</defs>
</svg>
