<svg width="504" height="504" viewBox="0 0 504 504" version="1.1" xmlns="http://www.w3.org/2000/svg" xmlns:xlink="http://www.w3.org/1999/xlink">
<title>006-wallet</title>
<desc>Created using Figma</desc>
<g id="Canvas" transform="translate(899 -2652)">
<g id="006-wallet">
<g id="Group">
<g id="Group">
<g id="Group">
<g id="Vector">
<use xlink:href="#path0_fill" transform="translate(-546.038 2944.98)" fill="#A4A4A4"/>
</g>
<g id="Vector">
<use xlink:href="#path1_fill" transform="translate(-521.292 3096.24)" fill="#A4A4A4"/>
</g>
<g id="Vector">
<use xlink:href="#path2_fill" transform="translate(-588.44 3096.24)" fill="#A4A4A4"/>
</g>
<g id="Vector">
<use xlink:href="#path3_fill" transform="translate(-655.587 3096.24)" fill="#A4A4A4"/>
</g>
<g id="Vector">
<use xlink:href="#path4_fill" transform="translate(-722.735 3096.24)" fill="#A4A4A4"/>
</g>
<g id="Vector">
<use xlink:href="#path5_fill" transform="translate(-789.883 3096.24)" fill="#A4A4A4"/>
</g>
<g id="Vector">
<use xlink:href="#path6_fill" transform="translate(-857.03 3096.24)" fill="#A4A4A4"/>
</g>
<g id="Vector">
<use xlink:href="#path7_fill" transform="translate(-521.292 2844.26)" fill="#A4A4A4"/>
</g>
<g id="Vector">
<use xlink:href="#path8_fill" transform="translate(-588.44 2844.26)" fill="#A4A4A4"/>
</g>
<g id="Vector">
<use xlink:href="#path9_fill" transform="translate(-655.587 2844.26)" fill="#A4A4A4"/>
</g>
<g id="Vector">
<use xlink:href="#path10_fill" transform="translate(-722.735 2844.26)" fill="#A4A4A4"/>
</g>
<g id="Vector">
<use xlink:href="#path11_fill" transform="translate(-789.883 2844.26)" fill="#A4A4A4"/>
</g>
<g id="Vector">
<use xlink:href="#path12_fill" transform="translate(-857.03 2844.26)" fill="#A4A4A4"/>
</g>
<g id="Vector">
<use xlink:href="#path13_fill" transform="translate(-899 2652)" fill="#A4A4A4"/>
</g>
</g>
</g>
</g>
</g>
</g>
<defs>
<path id="path0_fill" d="M 33.356 7.32422e-06C 14.966 7.32422e-06 5.61523e-06 15.058 5.61523e-06 33.574C 5.61523e-06 52.09 14.966 67.148 33.356 67.148C 51.746 67.148 66.712 52.09 66.712 33.574C 66.712 15.058 51.746 7.32422e-06 33.356 7.32422e-06ZM 33.356 50.36C 24.224 50.36 16.787 42.831 16.787 33.573C 16.787 24.315 24.224 16.786 33.356 16.786C 42.488 16.786 49.925 24.315 49.925 33.573C 49.925 42.831 42.488 50.36 33.356 50.36Z"/>
<path id="path1_fill" d="M 33.573 7.32422e-07L 8.39301 7.32422e-07C 3.76001 7.32422e-07 7.8125e-06 3.76001 7.8125e-06 8.39301C 7.8125e-06 13.026 3.76001 16.786 8.39301 16.786L 33.573 16.786C 38.206 16.786 41.966 13.026 41.966 8.39301C 41.966 3.76001 38.206 7.32422e-07 33.573 7.32422e-07Z"/>
<path id="path2_fill" d="M 41.967 7.32422e-07L 8.393 7.32422e-07C 3.76 7.32422e-07 -2.44141e-06 3.76001 -2.44141e-06 8.39301C -2.44141e-06 13.026 3.76 16.786 8.393 16.786L 41.967 16.786C 46.6 16.786 50.36 13.026 50.36 8.39301C 50.36 3.76001 46.6 7.32422e-07 41.967 7.32422e-07Z"/>
<path id="path3_fill" d="M 41.967 7.32422e-07L 8.393 7.32422e-07C 3.76 7.32422e-07 -5.61523e-06 3.76001 -5.61523e-06 8.39301C -5.61523e-06 13.026 3.76 16.786 8.393 16.786L 41.967 16.786C 46.6 16.786 50.36 13.026 50.36 8.39301C 50.36 3.76001 46.6 7.32422e-07 41.967 7.32422e-07Z"/>
<path id="path4_fill" d="M 41.967 7.32422e-07L 8.393 7.32422e-07C 3.76 7.32422e-07 -6.10352e-07 3.76001 -6.10352e-07 8.39301C -6.10352e-07 13.026 3.76 16.786 8.393 16.786L 41.967 16.786C 46.6 16.786 50.36 13.026 50.36 8.39301C 50.36 3.76001 46.6 7.32422e-07 41.967 7.32422e-07Z"/>
<path id="path5_fill" d="M 41.967 7.32422e-07L 8.393 7.32422e-07C 3.76 7.32422e-07 -3.23486e-06 3.76001 -3.23486e-06 8.39301C -3.23486e-06 13.026 3.76 16.786 8.393 16.786L 41.967 16.786C 46.6 16.786 50.36 13.026 50.36 8.39301C 50.36 3.76001 46.601 7.32422e-07 41.967 7.32422e-07Z"/>
<path id="path6_fill" d="M 41.967 7.32422e-07L 8.393 7.32422e-07C 3.76 7.32422e-07 1.2207e-06 3.76001 1.2207e-06 8.39301C 1.2207e-06 13.026 3.76 16.786 8.393 16.786L 41.967 16.786C 46.6 16.786 50.36 13.026 50.36 8.39301C 50.36 3.76001 46.6 7.32422e-07 41.967 7.32422e-07Z"/>
<path id="path7_fill" d="M 8.39301 16.786L 33.573 16.786C 38.206 16.786 41.966 13.026 41.966 8.393C 41.966 3.76 38.206 -9.76562e-07 33.573 -9.76562e-07L 8.39301 -9.76562e-07C 3.76001 -9.76562e-07 7.8125e-06 3.76 7.8125e-06 8.393C 7.8125e-06 13.026 3.76001 16.786 8.39301 16.786Z"/>
<path id="path8_fill" d="M 8.393 16.786L 41.967 16.786C 46.6 16.786 50.36 13.026 50.36 8.393C 50.36 3.76 46.6 -9.76562e-07 41.967 -9.76562e-07L 8.393 -9.76562e-07C 3.76 -9.76562e-07 -2.44141e-06 3.76 -2.44141e-06 8.393C -2.44141e-06 13.026 3.76 16.786 8.393 16.786Z"/>
<path id="path9_fill" d="M 41.967 7.20215e-06L 8.393 7.20215e-06C 3.76 7.20215e-06 -5.61523e-06 3.76 -5.61523e-06 8.393C -5.61523e-06 13.026 3.76 16.786 8.393 16.786L 41.967 16.786C 46.6 16.786 50.36 13.026 50.36 8.393C 50.36 3.76 46.6 7.20215e-06 41.967 7.20215e-06Z"/>
<path id="path10_fill" d="M 41.967 7.20215e-06L 8.393 7.20215e-06C 3.76 7.20215e-06 -6.10352e-07 3.76 -6.10352e-07 8.393C -6.10352e-07 13.026 3.76 16.786 8.393 16.786L 41.967 16.786C 46.6 16.786 50.36 13.026 50.36 8.393C 50.36 3.76 46.6 7.20215e-06 41.967 7.20215e-06Z"/>
<path id="path11_fill" d="M 41.967 7.20215e-06L 8.393 7.20215e-06C 3.76 7.20215e-06 -3.23486e-06 3.76 -3.23486e-06 8.393C -3.23486e-06 13.026 3.76 16.786 8.393 16.786L 41.967 16.786C 46.6 16.786 50.36 13.026 50.36 8.393C 50.36 3.76 46.601 7.20215e-06 41.967 7.20215e-06Z"/>
<path id="path12_fill" d="M 41.967 7.20215e-06L 8.393 7.20215e-06C 3.76 7.20215e-06 1.2207e-06 3.76 1.2207e-06 8.393C 1.2207e-06 13.026 3.76 16.786 8.393 16.786L 41.967 16.786C 46.6 16.786 50.36 13.026 50.36 8.393C 50.36 3.76 46.6 7.20215e-06 41.967 7.20215e-06Z"/>
<path id="path13_fill" d="M 484.917 151.428L 438.327 5.83033C 437.622 3.65633 436.069 1.85233 434.004 0.844331C 431.956 -0.154669 429.572 -0.271669 427.424 0.517331L 19.833 151.112C 8.45 154.023 0 164.414 0 176.754L 0 476.357C 0 490.945 11.81 502.822 26.305 502.822L 435.334 503.183C 436.809 503.183 438.255 503.054 439.665 502.818L 477.302 502.818C 491.806 502.818 503.607 490.941 503.607 476.353L 503.607 393.703L 503.61 393.703L 503.61 267.801L 503.61 259.408L 503.61 176.758C 503.609 164.832 495.72 154.722 484.917 151.428ZM 466.93 150.293L 438.018 150.293L 425.875 117.412C 425.052 115.205 423.349 113.433 421.158 112.544C 418.976 111.654 416.525 111.73 414.393 112.745C 413.864 112.997 413.293 113.165 412.739 113.349L 411.153 113.903C 391.613 121.121 369.857 111.108 362.631 91.5763C 362.237 90.4933 361.901 89.3853 361.607 88.2863C 361.019 86.0953 359.567 84.2403 357.587 83.1323C 355.615 82.0323 353.264 81.7723 351.099 82.4273L 291.371 100.288C 290.572 100.527 289.837 100.878 289.173 101.313C 271.213 98.4193 252.367 100.048 234.303 106.848C 212.39 115.1 193.571 130.434 180.823 150.297L 70.477 150.297L 425.007 19.3013L 466.93 150.293ZM 342.732 150.297L 201.522 150.297C 211.755 137.795 224.908 128.321 240.212 122.561C 277.196 108.614 318.084 120.329 342.732 150.297ZM 363.473 150.297C 351.905 132.221 335.818 118.511 317.507 109.993L 348.27 100.793C 359.324 125.478 387.023 138.37 412.975 130.951L 420.123 150.298L 363.473 150.298L 363.473 150.297ZM 16.787 476.357L 16.787 176.754C 16.787 172.519 19.489 168.917 23.233 167.613C 23.682 167.532 24.131 167.411 24.577 167.253C 25.141 167.147 25.72 167.084 26.313 167.084L 435.334 167.084C 440.58 167.084 444.852 171.423 444.852 176.753L 444.852 259.407L 386.1 259.407C 349.077 259.407 318.952 289.531 318.952 326.555C 318.952 363.578 349.076 393.703 386.1 393.703L 444.852 393.703L 444.852 476.718C 444.852 481.154 441.898 484.891 437.896 486.031L 436.459 486.031C 435.609 486.031 434.79 486.16 434.017 486.395L 26.313 486.035C 21.059 486.035 16.787 481.687 16.787 476.357ZM 486.822 376.916L 386.101 376.916C 358.327 376.916 335.74 354.329 335.74 326.555C 335.74 298.781 358.327 276.194 386.101 276.194L 453.164 276.194C 453.192 276.194 453.218 276.198 453.246 276.198C 453.274 276.198 453.301 276.194 453.328 276.194L 486.822 276.194L 486.822 376.916ZM 486.82 476.353C 486.82 481.691 482.548 486.031 477.302 486.031L 459.953 486.031C 461.04 483.132 461.64 479.995 461.64 476.718L 461.64 393.703L 486.82 393.703L 486.82 476.353L 486.82 476.353ZM 461.639 259.408L 461.639 176.754C 461.639 173.34 460.986 170.079 459.81 167.081L 477.304 167.081C 482.55 167.081 486.822 171.42 486.822 176.759L 486.822 259.409L 461.639 259.409L 461.639 259.408Z"/>
</defs>
</svg>
