<svg xmlns="http://www.w3.org/2000/svg" width="33" height="25">
    <path fill="#9F9F9F" fill-rule="evenodd" d="M29.433 24.447H3.821c-1.768 0-3.201-1.466-3.201-3.273V3.715C.62 1.908 2.053.442 3.821.442h25.612c1.768 0 3.201 1.466 3.201 3.273v17.459c0 1.807-1.433 3.273-3.201 3.273zM10.9 4.809c-1.635 0-2.96 1.401-2.96 3.129s1.325 3.129 2.96 3.129c1.634 0 2.959-1.401 2.959-3.129S12.534 4.809 10.9 4.809zm6.74 12.193c-.159-2.236-1.514-5.007-3.552-5.007-2.038 0-1.373 3.338-3.158 3.338-1.784 0-.933-3.331-3.157-3.338-2.484-.008-3.982 3.405-3.952 5.594.017 1.239.481 2.05 1.048 2.584.525.627 1.236 1.001 2.115 1.001H14.483c1.743 0 3.212-1.64 3.212-3.484 0-.219-.023-.432-.061-.639 0-.017.007-.032.006-.049zm9.659-11.104h-7.47a1.08 1.08 0 0 0-1.068 1.091 1.08 1.08 0 0 0 1.068 1.091h7.47a1.08 1.08 0 0 0 1.067-1.091 1.08 1.08 0 0 0-1.067-1.091z"/>
</svg>
