<svg xmlns="http://www.w3.org/2000/svg" width="23" height="21">
    <path fill="#FFF" fill-rule="evenodd" d="M17.998 15.416c-2.886-.998-3.809-1.84-3.809-3.644 0-1.082.882-.729 1.269-2.711.16-.823.939-.014 1.088-1.891 0-.749-.425-.935-.425-.935s.216-1.107.3-1.959c.105-1.062-.646-3.805-4.652-3.805S7.012 3.214 7.117 4.276c.084.852.3 1.959.3 1.959s-.425.186-.425.935c.149 1.877.927 1.068 1.088 1.891.387 1.982 1.268 1.629 1.268 2.711 0 1.804-.922 2.646-3.808 3.644C2.644 16.418.763 17.439.763 18.135v2.34h22.012v-2.34c0-.696-1.881-1.717-4.777-2.719z"/>
</svg>
