<svg xmlns="http://www.w3.org/2000/svg" width="27" height="20">
    <path fill="#25A7D7" fill-rule="evenodd" d="M19.008 17.099c-3.126.559-4.533 1.784-4.956 2.231l-.072.167-.036-.046-.037.046-.072-.167c-.422-.447-1.829-1.672-4.956-2.231-3.861-.69-7.942.654-7.942.654V2.782l.801-.218.073 14.026s3.207-.981 6.558-.654c3.11.304 5.277 2.044 5.575 2.295.297-.251 2.465-1.991 5.574-2.295 3.352-.327 6.558.654 6.558.654l.073-14.026.802.218v14.971s-4.081-1.344-7.943-.654zm1.312-2.689c-1.713.182-5.757 2.18-5.757 2.18V2.928s1.931-1.635 4.591-2.035c2.66-.4 5.975.509 5.975.509l.073 13.662s-3.17-.835-4.882-.654zm-17.634.654l.073-13.662S6.074.493 8.734.893c2.659.4 4.59 2.035 4.59 2.035V16.59s-4.044-1.998-5.756-2.18c-1.713-.181-4.882.654-4.882.654z"/>
</svg>
