<svg xmlns="http://www.w3.org/2000/svg" width="26" height="36">
    <path fill="#FFF" fill-rule="evenodd" d="M24.949 29.975h-5.002v5.001a1 1 0 0 1-1.001 1.001h-1.001a1 1 0 0 1-1-1.001v-5.001h-5.003a1 1 0 0 1-1-1v-1a1 1 0 0 1 1-1h5.003v-5.001a1 1 0 0 1 1-1h1.001a1 1 0 0 1 1.001 1v5.001h5.002a1 1 0 0 1 1.001 1v1a1 1 0 0 1-1.001 1zm-7.625-11.971V4.582H3.558v20.882h4.713a9.952 9.952 0 0 0-.331 2.511c0 1.234.234 2.41.643 3.501H4.214c-1.803 0-3.278-1.424-3.278-3.164V3.633c0-1.74 1.475-3.164 3.278-3.164h12.455c1.803 0 3.278 1.424 3.278 3.164v14.541a10.077 10.077 0 0 0-2.002-.201c-.209 0-.414.019-.621.031z"/>
</svg>
