<svg width="50" height="50" viewBox="0 0 50 50" version="1.1" xmlns="http://www.w3.org/2000/svg" xmlns:xlink="http://www.w3.org/1999/xlink">
<title>avatar</title>
<desc>Created using Figma</desc>
<g id="Canvas" transform="translate(1550 391)">
<g id="avatar">
<g id="Group">
<g id="Group">
<g id="Vector">
<use xlink:href="#path0_fill" transform="translate(-1537.7 -391)" fill="#000000" fill-opacity="0.17"/>
</g>
<g id="Vector">
<use xlink:href="#path1_fill" transform="translate(-1550 -364.158)" fill="#000000" fill-opacity="0.17"/>
</g>
</g>
</g>
</g>
</g>
<defs>
<path id="path0_fill" d="M 12.4914 26.9414C 12.5523 26.9414 12.6132 26.9414 12.6862 26.9414C 12.7105 26.9414 12.7349 26.9414 12.7592 26.9414C 12.7957 26.9414 12.8444 26.9414 12.881 26.9414C 16.4476 26.8896 19.3325 25.8232 21.4627 23.7834C 26.1492 19.2897 25.3701 11.5862 25.2849 10.8511C 24.9806 5.33237 21.9131 2.69207 19.3812 1.45993C 17.4944 0.538414 15.2911 0.0414164 12.8323 0L 12.7471 0C 12.7349 0 12.7105 0 12.6984 0L 12.6253 0C 11.2742 0 8.62051 0.186374 6.07641 1.41851C 3.52015 2.65065 0.403935 5.29095 0.0996172 10.8511C 0.0144083 11.5862 -0.764643 19.2897 3.92185 23.7834C 6.0399 25.8232 8.92483 26.8896 12.4914 26.9414ZM 3.34973 11.11C 3.34973 11.0789 3.3619 11.0478 3.3619 11.0271C 3.7636 3.60323 9.9595 2.80596 12.6132 2.80596L 12.6618 2.80596C 12.6862 2.80596 12.7227 2.80596 12.7592 2.80596C 16.0459 2.86809 21.6331 4.00704 22.0105 11.0271C 22.0105 11.0582 22.0105 11.0893 22.0226 11.11C 22.0348 11.1824 22.8869 18.2232 19.016 21.93C 17.4822 23.4003 15.4372 24.1251 12.7471 24.1458C 12.7227 24.1458 12.7105 24.1458 12.6862 24.1458C 12.6618 24.1458 12.6497 24.1458 12.6253 24.1458C 9.94733 24.1251 7.89015 23.4003 6.36856 21.93C 2.50981 18.2439 3.33756 11.1721 3.34973 11.11Z"/>
<path id="path1_fill" d="M 49.9966 12.8759C 49.9966 12.8656 49.9966 12.8552 49.9966 12.8449C 49.9966 12.762 49.9844 12.6792 49.9844 12.586C 49.9114 10.5359 49.7531 5.74196 44.4702 4.20955C 44.4337 4.1992 44.385 4.18885 44.3485 4.17849C 38.8586 2.98777 34.2938 0.2957 34.2451 0.264638C 33.5026 -0.180589 32.4801 -0.0252753 31.9567 0.606325C 31.4332 1.23793 31.6158 2.10767 32.3583 2.5529C 32.5653 2.67715 37.41 5.54524 43.472 6.87056C 46.3083 7.72995 46.6248 10.3081 46.71 12.6689C 46.71 12.7621 46.71 12.8449 46.7221 12.9277C 46.7343 13.8596 46.6613 15.2988 46.4665 16.1271C 44.4945 17.0797 36.7649 20.3723 25.006 20.3723C 13.2959 20.3723 5.51755 17.0694 3.5334 16.1168C 3.33863 15.2885 3.25342 13.8492 3.27777 12.9174C 3.27777 12.8345 3.28994 12.7517 3.28994 12.6585C 3.37515 10.2978 3.69164 7.7196 6.52788 6.86021C 12.5899 5.53488 17.4346 2.65644 17.6416 2.54254C 18.3841 2.09732 18.5667 1.22757 18.0433 0.595971C 17.5198 -0.0356301 16.4973 -0.19094 15.7548 0.254286C 15.7061 0.285349 11.1657 2.97742 5.65145 4.16814C 5.60275 4.17849 5.56624 4.18885 5.52972 4.1992C 0.246767 5.74196 0.088522 10.5359 0.0154858 12.5757C 0.0154858 12.6689 0.0154855 12.7517 0.0033128 12.8345C 0.0033128 12.8449 0.0033128 12.8552 0.0033128 12.8656C -0.0088599 13.404 -0.0210323 16.1686 0.624121 17.556C 0.745848 17.8252 0.964956 18.053 1.2571 18.2083C 1.62228 18.4154 10.3745 23.1576 25.0182 23.1576C 39.662 23.1576 48.4141 18.405 48.7793 18.2083C 49.0593 18.053 49.2906 17.8252 49.4123 17.556C 50.0209 16.1789 50.0088 13.4144 49.9966 12.8759Z"/>
</defs>
</svg>
