<svg width="52" height="52" viewBox="0 0 52 52" version="1.1" xmlns="http://www.w3.org/2000/svg" xmlns:xlink="http://www.w3.org/1999/xlink">
<title>Group</title>
<desc>Created using Figma</desc>
<g id="Canvas" transform="translate(742 19)">
<g id="Group">
<g id="close">
<g id="Group">
<g id="Vector">
<use xlink:href="#path0_fill" transform="translate(-726 -3.00025)" fill="#FFFFFF"/>
</g>
</g>
</g>
<g id="Ellipse">
<use xlink:href="#path1_fill" transform="translate(-742 -19)" fill="#FFFFFF" fill-opacity="0.40"/>
</g>
</g>
</g>
<defs>
<path id="path0_fill" d="M 19.7073 0.293249C 19.3163 -0.0977507 18.6842 -0.0977507 18.2932 0.293249L 10.0002 8.58625L 1.70725 0.293249C 1.31625 -0.0977507 0.684249 -0.0977507 0.293249 0.293249C -0.0977507 0.684249 -0.0977507 1.31625 0.293249 1.70725L 8.58625 10.0002L 0.293249 18.2932C -0.0977507 18.6842 -0.0977507 19.3163 0.293249 19.7073C 0.488249 19.9023 0.74425 20.0002 1.00025 20.0002C 1.25625 20.0002 1.51225 19.9023 1.70725 19.7073L 10.0002 11.4142L 18.2932 19.7073C 18.4882 19.9023 18.7442 20.0002 19.0002 20.0002C 19.2562 20.0002 19.5123 19.9023 19.7073 19.7073C 20.0983 19.3163 20.0983 18.6842 19.7073 18.2932L 11.4142 10.0002L 19.7073 1.70725C 20.0983 1.31625 20.0983 0.684249 19.7073 0.293249Z"/>
<path id="path1_fill" d="M 52 26C 52 40.3594 40.3594 52 26 52C 11.6406 52 0 40.3594 0 26C 0 11.6406 11.6406 0 26 0C 40.3594 0 52 11.6406 52 26Z"/>
</defs>
</svg>
