<svg width="52" height="52" viewBox="0 0 52 52" version="1.1" xmlns="http://www.w3.org/2000/svg" xmlns:xlink="http://www.w3.org/1999/xlink">
<title>close</title>
<desc>Created using Figma</desc>
<g id="Canvas" transform="translate(165 -89)">
<g id="close">
<g id="Group">
<g id="Vector">
<use xlink:href="#path0_fill" transform="translate(-165 89)" fill="#FFFFFF"/>
</g>
<g id="Vector">
<use xlink:href="#path1_fill" transform="translate(-149 105)" fill="#FFFFFF"/>
</g>
</g>
</g>
</g>
<defs>
<path id="path0_fill" d="M 26 0C 11.664 0 0 11.663 0 26C 0 40.337 11.664 52 26 52C 40.336 52 52 40.337 52 26C 52 11.663 40.336 0 26 0ZM 26 50C 12.767 50 2 39.233 2 26C 2 12.767 12.767 2 26 2C 39.233 2 50 12.767 50 26C 50 39.233 39.233 50 26 50Z"/>
<path id="path1_fill" d="M 19.7073 0.293249C 19.3163 -0.0977507 18.6842 -0.0977507 18.2932 0.293249L 10.0002 8.58625L 1.70725 0.293249C 1.31625 -0.0977507 0.684249 -0.0977507 0.293249 0.293249C -0.0977507 0.684249 -0.0977507 1.31625 0.293249 1.70725L 8.58625 10.0002L 0.293249 18.2932C -0.0977507 18.6842 -0.0977507 19.3163 0.293249 19.7073C 0.488249 19.9023 0.74425 20.0002 1.00025 20.0002C 1.25625 20.0002 1.51225 19.9023 1.70725 19.7073L 10.0002 11.4142L 18.2932 19.7073C 18.4882 19.9023 18.7442 20.0002 19.0002 20.0002C 19.2562 20.0002 19.5123 19.9023 19.7073 19.7073C 20.0983 19.3163 20.0983 18.6842 19.7073 18.2932L 11.4142 10.0002L 19.7073 1.70725C 20.0983 1.31625 20.0983 0.684249 19.7073 0.293249Z"/>
</defs>
</svg>
