<?xml version="1.0" encoding="utf-8"?>
<!-- Generator: Adobe Illustrator 21.0.0, SVG Export Plug-In . SVG Version: 6.00 Build 0)  -->
<svg version="1.1" xmlns="http://www.w3.org/2000/svg" xmlns:xlink="http://www.w3.org/1999/xlink" x="0px" y="0px"
	 viewBox="0 0 150 100" style="enable-background:new 0 0 150 100;" xml:space="preserve">
<style type="text/css">
	.st0{fill:none;stroke:#FFFFFF;stroke-miterlimit:10;}
	.st1{fill:none;stroke:url(#SVGID_1_);stroke-miterlimit:10;}
</style>
<g id="academy">
	<path class="st0" d="M43.2,55.6h63.7v30H43.2V55.6z"/>
	<path class="st0" d="M75,78.3c4.9,0,8.8,3.9,8.8,8.7c0,4.8-3.9,8.7-8.8,8.7s-8.8-3.9-8.8-8.7C66.2,82.2,70.1,78.3,75,78.3z"/>
</g>
<g id="Layer_2">
	<linearGradient id="SVGID_1_" gradientUnits="userSpaceOnUse" x1="66.2407" y1="14.1795" x2="84.9534" y2="65.5921">
		<stop  offset="0" style="stop-color:#00F4FD"/>
		<stop  offset="0.5108" style="stop-color:#FF30F8"/>
		<stop  offset="0.5826" style="stop-color:#FE4AC8"/>
		<stop  offset="0.697" style="stop-color:#FC7082"/>
		<stop  offset="0.8" style="stop-color:#FB8E4A"/>
		<stop  offset="0.8881" style="stop-color:#FAA422"/>
		<stop  offset="0.9576" style="stop-color:#F9B109"/>
		<stop  offset="1" style="stop-color:#F9B600"/>
	</linearGradient>
	<path class="st1" d="M106,36.7L85.8,57.4L74.4,68.7L63,57.4L42.9,36.7L63,16.1l11.4,11.7l11.4-11.7L106,36.7z"/>
	<path class="st0" d="M106.5,26.5l9.5,10l-9.5,10"/>
	<path class="st0" d="M43,46.5l-9.5-10l9.5-10"/>
</g>
</svg>
