<svg width="101" height="71" viewBox="0 0 101 71" version="1.1" xmlns="http://www.w3.org/2000/svg" xmlns:xlink="http://www.w3.org/1999/xlink">
<title>efi</title>
<desc>Created using Figma</desc>
<g id="Canvas" transform="translate(394 -245)">
<g id="efi">
<use xlink:href="#path0_fill" transform="translate(-401 242)" fill="#FFFFFF"/>
</g>
</g>
<defs>
<path id="path0_fill" d="M 33.7284 73.536C 29.9524 73.536 26.4324 73.024 23.1684 72C 19.9684 70.912 17.1524 69.312 14.7204 67.2C 12.3524 65.088 10.4644 62.432 9.05638 59.232C 7.71238 56.032 7.04038 52.288 7.04038 48C 7.04038 43.776 7.71238 40.16 9.05638 37.152C 10.4644 34.08 12.2884 31.584 14.5284 29.664C 16.7684 27.68 19.3284 26.24 22.2084 25.344C 25.0884 24.384 28.0324 23.904 31.0404 23.904C 34.4324 23.904 37.5044 24.416 40.2564 25.44C 43.0724 26.464 45.4724 27.872 47.4564 29.664C 49.5044 31.456 51.0724 33.6 52.1604 36.096C 53.3124 38.592 53.8884 41.312 53.8884 44.256C 53.8884 46.432 53.2804 48.096 52.0644 49.248C 50.8484 50.4 49.1524 51.136 46.9764 51.456L 23.2644 55.008C 23.9684 57.12 25.4084 58.72 27.5844 59.808C 29.7604 60.832 32.2564 61.344 35.0724 61.344C 37.6964 61.344 40.1604 61.024 42.4644 60.384C 44.8324 59.68 46.7524 58.88 48.2244 57.984C 49.2484 58.624 50.1124 59.52 50.8164 60.672C 51.5204 61.824 51.8724 63.04 51.8724 64.32C 51.8724 67.2 50.5284 69.344 47.8404 70.752C 45.7924 71.84 43.4884 72.576 40.9284 72.96C 38.3684 73.344 35.9684 73.536 33.7284 73.536ZM 31.0404 35.808C 29.5044 35.808 28.1604 36.064 27.0084 36.576C 25.9204 37.088 25.0244 37.76 24.3204 38.592C 23.6164 39.36 23.0724 40.256 22.6884 41.28C 22.3684 42.24 22.1764 43.232 22.1124 44.256L 38.5284 41.568C 38.3364 40.288 37.6324 39.008 36.4164 37.728C 35.2004 36.448 33.4084 35.808 31.0404 35.808ZM 55.2159 25.344C 55.2159 22.08 55.7599 19.296 56.8479 16.992C 57.9999 14.624 59.5359 12.704 61.4559 11.232C 63.3759 9.696 65.6159 8.576 68.1759 7.872C 70.7999 7.168 73.5839 6.816 76.5279 6.816C 81.2639 6.816 84.7519 7.456 86.9919 8.736C 89.2319 9.952 90.3519 12.064 90.3519 15.072C 90.3519 16.352 90.0639 17.504 89.4879 18.528C 88.9759 19.552 88.3999 20.32 87.7599 20.832C 86.5439 20.512 85.2639 20.256 83.9199 20.064C 82.6399 19.808 81.1359 19.68 79.4079 19.68C 76.6559 19.68 74.5119 20.16 72.9759 21.12C 71.4399 22.016 70.6719 23.616 70.6719 25.92L 70.6719 28.992L 86.4159 28.992C 86.7999 29.696 87.1519 30.592 87.4719 31.68C 87.8559 32.704 88.0479 33.856 88.0479 35.136C 88.0479 37.376 87.5359 39.008 86.5119 40.032C 85.5519 40.992 84.2399 41.472 82.5759 41.472L 71.5359 41.472L 71.5359 71.904C 70.8959 72.096 69.8719 72.288 68.4639 72.48C 67.1199 72.672 65.7119 72.768 64.2399 72.768C 62.8319 72.768 61.5519 72.672 60.3999 72.48C 59.3119 72.288 58.3839 71.904 57.6159 71.328C 56.8479 70.752 56.2399 69.984 55.7919 69.024C 55.4079 68 55.2159 66.688 55.2159 65.088L 55.2159 25.344ZM 89.1699 12.384C 89.1699 9.952 89.9699 7.904 91.5699 6.24C 93.2339 4.576 95.4099 3.744 98.0979 3.744C 100.786 3.744 102.93 4.576 104.53 6.24C 106.194 7.904 107.026 9.952 107.026 12.384C 107.026 14.816 106.194 16.864 104.53 18.528C 102.93 20.192 100.786 21.024 98.0979 21.024C 95.4099 21.024 93.2339 20.192 91.5699 18.528C 89.9699 16.864 89.1699 14.816 89.1699 12.384ZM 106.258 71.904C 105.554 72.032 104.498 72.192 103.09 72.384C 101.746 72.64 100.37 72.768 98.9619 72.768C 97.5539 72.768 96.2739 72.672 95.1219 72.48C 94.0339 72.288 93.1059 71.904 92.3379 71.328C 91.5699 70.752 90.9619 69.984 90.5139 69.024C 90.1299 68 89.9379 66.688 89.9379 65.088L 89.9379 26.016C 90.6419 25.888 91.6659 25.728 93.0099 25.536C 94.4179 25.28 95.8259 25.152 97.2339 25.152C 98.6419 25.152 99.8899 25.248 100.978 25.44C 102.13 25.632 103.09 26.016 103.858 26.592C 104.626 27.168 105.202 27.968 105.586 28.992C 106.034 29.952 106.258 31.232 106.258 32.832L 106.258 71.904Z"/>
</defs>
</svg>
