<svg width="77" height="46" viewBox="0 0 77 46" version="1.1" xmlns="http://www.w3.org/2000/svg" xmlns:xlink="http://www.w3.org/1999/xlink">
<title>eye</title>
<desc>Created using Figma</desc>
<g id="Canvas" transform="translate(931 129)">
<g id="eye">
<g id="Group">
<g id="Group">
<g id="Vector">
<use xlink:href="#path0_fill" transform="translate(-931 -129)" fill="#FFFFFF"/>
</g>
<g id="Vector">
<use xlink:href="#path1_fill" transform="translate(-904.792 -119.439)" fill="#FFFFFF"/>
</g>
</g>
</g>
</g>
</g>
<defs>
<path id="path0_fill" d="M 76.299 21.4509C 64.25 6.84693 51.295 -0.33407 37.792 0.0119295C 16.007 0.62093 1.011 20.6859 0.383 21.5389C 0.354 21.5789 0.334 21.6229 0.309 21.6649C 0.288 21.6969 0.269 21.7299 0.25 21.7649C 0.205 21.8449 0.167 21.9249 0.135 22.0079C 0.12 22.0479 0.107 22.0879 0.094 22.1279C 0.069 22.2069 0.048 22.2859 0.033 22.3659C 0.023 22.4179 0.017 22.4699 0.012 22.5229C 0.005 22.5909 0 22.6589 0 22.7279C 0 22.7959 0.005 22.8639 0.012 22.9319C 0.018 22.9849 0.024 23.0359 0.033 23.0889C 0.048 23.1689 0.069 23.2479 0.094 23.3269C 0.107 23.3669 0.12 23.4069 0.135 23.4469C 0.167 23.5299 0.206 23.6099 0.25 23.6899C 0.269 23.7239 0.287 23.7559 0.309 23.7899C 0.334 23.8309 0.354 23.8759 0.383 23.9159C 1.011 24.7699 16.007 44.8339 37.792 45.4429C 38.129 45.4519 38.464 45.4569 38.799 45.4569C 51.938 45.4569 64.549 38.2439 76.299 24.0039C 76.608 23.6299 76.748 23.1769 76.747 22.7279C 76.748 22.2779 76.608 21.8249 76.299 21.4509ZM 37.928 41.4459C 20.99 40.9849 8.047 26.9289 4.55 22.7279C 8.047 18.5269 20.989 4.46993 37.928 4.00893C 49.75 3.69993 61.233 9.99793 72.129 22.7279C 61.234 35.4589 49.762 41.7879 37.928 41.4459Z"/>
<path id="path1_fill" d="M 13.167 -6.2561e-07C 5.906 -6.2561e-07 1.83105e-07 5.906 1.83105e-07 13.166C 1.83105e-07 20.427 5.906 26.333 13.167 26.333C 20.428 26.333 26.334 20.427 26.334 13.166C 26.334 5.906 20.428 -6.2561e-07 13.167 -6.2561e-07ZM 13.167 22.333C 8.112 22.333 4 18.221 4 13.166C 4 8.112 8.112 4 13.167 4C 18.222 4 22.334 8.112 22.334 13.166C 22.334 18.22 18.222 22.333 13.167 22.333Z"/>
</defs>
</svg>
