<svg width="59" height="35" viewBox="0 0 59 35" version="1.1" xmlns="http://www.w3.org/2000/svg" xmlns:xlink="http://www.w3.org/1999/xlink">
<title>keyboard</title>
<desc>Created using Figma</desc>
<g id="Canvas" transform="translate(579 333)">
<g id="keyboard">
<g id="Group">
<g id="Group">
<g id="Vector">
<use xlink:href="#path0_fill" transform="translate(-579 -333)" fill="#FFFFFF"/>
</g>
<g id="Vector">
<use xlink:href="#path1_fill" transform="translate(-571.133 -309.667)" fill="#FFFFFF"/>
</g>
<g id="Vector">
<use xlink:href="#path2_fill" transform="translate(-571.133 -317.445)" fill="#FFFFFF"/>
</g>
<g id="Vector">
<use xlink:href="#path3_fill" transform="translate(-571.133 -325.222)" fill="#FFFFFF"/>
</g>
<g id="Vector">
<use xlink:href="#path4_fill" transform="translate(-563.267 -309.667)" fill="#FFFFFF"/>
</g>
<g id="Vector">
<use xlink:href="#path5_fill" transform="translate(-559.333 -317.445)" fill="#FFFFFF"/>
</g>
<g id="Vector">
<use xlink:href="#path6_fill" transform="translate(-563.267 -325.222)" fill="#FFFFFF"/>
</g>
<g id="Vector">
<use xlink:href="#path7_fill" transform="translate(-551.467 -317.445)" fill="#FFFFFF"/>
</g>
<g id="Vector">
<use xlink:href="#path8_fill" transform="translate(-555.4 -325.222)" fill="#FFFFFF"/>
</g>
<g id="Vector">
<use xlink:href="#path9_fill" transform="translate(-543.6 -317.445)" fill="#FFFFFF"/>
</g>
<g id="Vector">
<use xlink:href="#path10_fill" transform="translate(-531.8 -309.667)" fill="#FFFFFF"/>
</g>
<g id="Vector">
<use xlink:href="#path11_fill" transform="translate(-547.533 -325.222)" fill="#FFFFFF"/>
</g>
<g id="Vector">
<use xlink:href="#path12_fill" transform="translate(-539.667 -325.222)" fill="#FFFFFF"/>
</g>
<g id="Vector">
<use xlink:href="#path13_fill" transform="translate(-535.734 -325.222)" fill="#FFFFFF"/>
</g>
</g>
</g>
</g>
</g>
<defs>
<path id="path0_fill" d="M 57.8475 1.13957C 57.0791 0.379891 56.152 3.44229e-07 55.0662 3.44229e-07L 3.93333 3.44229e-07C 2.84756 3.44229e-07 1.92076 0.379998 1.1525 1.13957C 0.384346 1.89914 0 2.81577 0 3.88894L 0 31.1107C 0 32.1843 0.384346 33.1004 1.1525 33.8601C 1.92087 34.6198 2.84756 35 3.93333 35L 55.0662 35C 56.152 35 57.0791 34.6198 57.8475 33.8601C 58.6154 33.1004 59 32.1843 59 31.1107L 59 3.88894C 59 2.81577 58.6154 1.89914 57.8475 1.13957ZM 55.0662 31.1107L 3.93333 31.1107L 3.93333 3.88894L 55.0662 3.88894L 55.0662 31.1107Z"/>
<path id="path1_fill" d="M 0.491652 3.88872L 3.44157 3.88872C 3.76941 3.88872 3.93333 3.72634 3.93333 3.40263L 3.93333 0.48609C 3.93333 0.162703 3.76973 1.03918e-07 3.44157 1.03918e-07L 0.491652 1.03918e-07C 0.164027 1.03918e-07 -3.35029e-07 0.162703 -3.35029e-07 0.48609L -3.35029e-07 3.40263C -3.35029e-07 3.72634 0.164027 3.88872 0.491652 3.88872Z"/>
<path id="path2_fill" d="M 0.491652 3.88936L 7.375 3.88936C 7.70273 3.88936 7.86687 3.72655 7.86687 3.40285L 7.86687 0.486091C 7.86687 0.162066 7.70273 0.00031886 7.375 -3.76703e-07L 0.491652 -3.76703e-07C 0.164027 -3.76703e-07 -3.35029e-07 0.162066 -3.35029e-07 0.486091L -3.35029e-07 3.40285C -3.35029e-07 3.72655 0.164027 3.88936 0.491652 3.88936Z"/>
<path id="path3_fill" d="M 0.491652 3.88894L 3.44157 3.88894C 3.76941 3.88894 3.93333 3.72666 3.93333 3.40263L 3.93333 0.486304C 3.93333 0.162173 3.76973 0.000532073 3.44157 1.29898e-08L 0.491652 1.29898e-08C 0.164027 1.29898e-08 -3.35029e-07 0.162173 -3.35029e-07 0.486304L -3.35029e-07 3.40263C -3.35029e-07 3.72666 0.164027 3.88894 0.491652 3.88894Z"/>
<path id="path4_fill" d="M 27.0418 1.61073e-06L 0.491868 1.61073e-06C 0.164028 1.61073e-06 -2.62768e-08 0.162386 -2.62768e-08 0.486517L -2.62768e-08 3.40263C -2.62768e-08 3.72602 0.164028 3.88915 0.491868 3.88915L 27.0409 3.88915C 27.3687 3.88915 27.533 3.72676 27.533 3.40263L 27.533 0.486517C 27.5331 0.162492 27.3688 1.61073e-06 27.0418 1.61073e-06Z"/>
<path id="path5_fill" d="M 6.56919e-07 3.40285C 6.56919e-07 3.72655 0.163919 3.88936 0.491329 3.88936L 3.44167 3.88936C 3.7693 3.88936 3.933 3.72655 3.933 3.40285L 3.933 0.486091C 3.933 0.162066 3.76962 0.00031886 3.44167 -3.76703e-07L 0.491329 -3.76703e-07C 0.163919 -3.76703e-07 6.56919e-07 0.162066 6.56919e-07 0.486091L 6.56919e-07 3.40285Z"/>
<path id="path6_fill" d="M 0.491868 3.88894L 3.44157 3.88894C 3.76941 3.88894 3.93343 3.72666 3.93343 3.40263L 3.93343 0.486304C 3.93343 0.162173 3.76941 0.000532073 3.44157 1.29898e-08L 0.491868 1.29898e-08C 0.164028 1.29898e-08 -2.62768e-08 0.162173 -2.62768e-08 0.486304L -2.62768e-08 3.40263C -2.62768e-08 3.72666 0.164136 3.88894 0.491868 3.88894Z"/>
<path id="path7_fill" d="M 3.81013e-07 3.40285C 3.81013e-07 3.72655 0.164029 3.88936 0.491654 3.88936L 3.44157 3.88936C 3.76941 3.88936 3.93365 3.72655 3.93365 3.40285L 3.93365 0.486091C 3.93365 0.162066 3.76941 0.00031886 3.44157 -3.76703e-07L 0.491654 -3.76703e-07C 0.164029 -3.76703e-07 3.81013e-07 0.162066 3.81013e-07 0.486091L 3.81013e-07 3.40285L 3.81013e-07 3.40285Z"/>
<path id="path8_fill" d="M 0.491868 3.88894L 3.44157 3.88894C 3.76941 3.88894 3.93343 3.72666 3.93343 3.40263L 3.93343 0.486304C 3.93343 0.162173 3.76973 0.000532073 3.44157 1.29898e-08L 0.491868 1.29898e-08C 0.164028 1.29898e-08 -1.83937e-07 0.162173 -1.83937e-07 0.486304L -1.83937e-07 3.40263C -1.83937e-07 3.72666 0.164028 3.88894 0.491868 3.88894Z"/>
<path id="path9_fill" d="M -8.9341e-07 3.40285C -8.9341e-07 3.72655 0.164134 3.88936 0.49122 3.88936L 3.44157 3.88936C 3.7693 3.88936 3.93279 3.72655 3.93279 3.40285L 3.93279 0.486091C 3.93279 0.162066 3.76919 0.00031886 3.44157 -3.76703e-07L 0.49122 -3.76703e-07C 0.164134 -3.76703e-07 -8.9341e-07 0.162066 -8.9341e-07 0.486091L -8.9341e-07 3.40285Z"/>
<path id="path10_fill" d="M 3.44157 1.61073e-06L 0.492084 1.61073e-06C 0.164244 1.61073e-06 -1.36639e-06 0.162386 -1.36639e-06 0.486517L -1.36639e-06 3.40263C -1.36639e-06 3.72602 0.164244 3.88915 0.492084 3.88915L 3.44157 3.88915C 3.76941 3.88915 3.93365 3.72676 3.93365 3.40263L 3.93365 0.486517C 3.93365 0.162492 3.76973 1.61073e-06 3.44157 1.61073e-06Z"/>
<path id="path11_fill" d="M 0.49133 3.88894L 3.44156 3.88894C 3.7694 3.88894 3.93289 3.72666 3.93289 3.40263L 3.93289 0.486304C 3.93289 0.162173 3.7693 0.000532073 3.44156 1.29898e-08L 0.49133 1.29898e-08C 0.16349 1.29898e-08 7.62545e-07 0.162173 7.62545e-07 0.486304L 7.62545e-07 3.40263C -0.000106867 3.72666 0.16349 3.88894 0.49133 3.88894Z"/>
<path id="path12_fill" d="M 0.492083 3.88894L 3.44157 3.88894C 3.76941 3.88894 3.93365 3.72666 3.93365 3.40263L 3.93365 0.486304C 3.93365 0.162173 3.76941 0.000532073 3.44157 1.29898e-08L 0.492083 1.29898e-08C 0.164243 1.29898e-08 1.60316e-06 0.162173 1.60316e-06 0.486304L 1.60316e-06 3.40263C -0.000106027 3.72666 0.164243 3.88894 0.492083 3.88894Z"/>
<path id="path13_fill" d="M -2.89045e-07 11.1805C -2.89045e-07 11.5042 0.163811 11.667 0.491651 11.667L 7.37489 11.667C 7.70273 11.667 7.86698 11.5042 7.86698 11.1805L 7.86698 0.486304C 7.86698 0.162173 7.70316 0.000532073 7.37489 1.29898e-08L 4.42541 1.29898e-08C 4.09757 1.29898e-08 3.93333 0.162173 3.93333 0.486304L 3.93333 7.77766L 0.49176 7.77766C 0.16392 7.77766 0.000108103 7.93973 0.000108103 8.26375L 0.000108103 11.1805L -2.89045e-07 11.1805Z"/>
</defs>
</svg>
